Coordinates
version=1
nRows=38
nColumns=12
inDegrees=yes

Units are S.I. units (second, meters, Newtons, ...)
Angles are in degrees

endheader
time	SC_y	SC_z	SC_x	AC_y	AC_z	AC_x	GH_y	GH_z	GH_yy	EL_x	PS_y
       0.0              -57.82          2.713           29.5          34.72         -1.023       -0.02216          91.35          36.01          120.1          39.42          115.4
   0.02505              -57.81          2.712           29.5          34.72         -1.023       -0.02229          91.36           36.0          120.1          39.43          115.4
    0.0501              -57.81          2.711           29.5          34.72         -1.024       -0.02243          91.37           36.0          120.1          39.44          115.4
   0.07515               -57.8          2.711           29.5          34.73         -1.024       -0.02258          91.38           36.0          120.1          39.46          115.4
    0.1002               -57.8           2.71           29.5          34.73         -1.024       -0.02274           91.4          35.99          120.1          39.47          115.4
    0.1252               -57.8          2.709          29.49          34.73         -1.024       -0.02291          91.41          35.99          120.1          39.49          115.4
    0.1503              -57.79          2.708          29.49          34.74         -1.025        -0.0231          91.42          35.98          120.1           39.5          115.4
    0.1753              -57.79          2.707          29.49          34.74         -1.025       -0.02329          91.44          35.98          120.1          39.52          115.4
    0.2004              -57.78          2.706          29.49          34.75         -1.025        -0.0235          91.45          35.97          120.1          39.54          115.4
    0.2254              -57.77          2.705          29.49          34.75         -1.026       -0.02372          91.47          35.97          120.2          39.56          115.4
    0.2505              -57.77          2.704          29.49          34.76         -1.026       -0.02396          91.48          35.96          120.2          39.58          115.4
    0.2755              -57.76          2.703          29.48          34.76         -1.027       -0.02422           91.5          35.96          120.2           39.6          115.4
    0.3006              -57.75          2.701          29.48          34.77         -1.027        -0.0245          91.52          35.95          120.2          39.63          115.3
    0.3256              -57.75            2.7          29.48          34.78         -1.028        -0.0248          91.55          35.94          120.2          39.65          115.3
    0.3507              -57.74          2.698          29.48          34.78         -1.028       -0.02512          91.57          35.94          120.2          39.68          115.3
    0.3757              -57.73          2.697          29.47          34.79         -1.029       -0.02547           91.6          35.93          120.2          39.71          115.3
    0.4008              -57.72          2.695          29.47           34.8          -1.03       -0.02586          91.62          35.92          120.2          39.75          115.3
    0.4258              -57.71          2.693          29.47          34.81          -1.03       -0.02627          91.65          35.91          120.2          39.78          115.3
    0.4509              -57.69          2.691          29.46          34.82         -1.031       -0.02673          91.69           35.9          120.3          39.82          115.3
    0.4759              -57.68          2.688          29.46          34.83         -1.032       -0.02723          91.72          35.88          120.3          39.87          115.2
     0.501              -57.67          2.686          29.45          34.85         -1.033       -0.02778          91.77          35.87          120.3          39.92          115.2
     0.526              -57.65          2.683          29.45          34.86         -1.034       -0.02838          91.81          35.86          120.3          39.97          115.2
    0.5511              -57.63          2.679          29.44          34.87         -1.035       -0.02905          91.86          35.84          120.3          40.03          115.2
    0.5761              -57.61          2.676          29.44          34.89         -1.036       -0.02978          91.91          35.82          120.4           40.1          115.1
    0.6012              -57.59          2.672          29.43          34.91         -1.038        -0.0306          91.97           35.8          120.4          40.17          115.1
    0.6262              -57.57          2.667          29.42          34.93         -1.039       -0.03152          92.04          35.78          120.4          40.25          115.1
    0.6513              -57.54          2.662          29.41          34.95         -1.041       -0.03254          92.11          35.76          120.4          40.34          115.0
    0.6763              -57.51          2.657          29.41          34.98         -1.043        -0.0337           92.2          35.73          120.5          40.44          115.0
    0.7014              -57.47           2.65          29.39          35.01         -1.046         -0.035           92.3           35.7          120.5          40.56          114.9
    0.7264              -57.43          2.643          29.38          35.04         -1.048       -0.03648           92.4          35.66          120.6          40.69          114.9
    0.7515              -57.39          2.635          29.37          35.08         -1.051       -0.03817          92.53          35.62          120.6          40.84          114.8
    0.7765              -57.34          2.626          29.35          35.13         -1.054       -0.04011          92.67          35.57          120.7          41.01          114.7
    0.8015              -57.28          2.615          29.33          35.18         -1.058       -0.04235          92.83          35.52          120.8          41.21          114.7
    0.8266              -57.21          2.602          29.31          35.24         -1.063       -0.04495          93.02          35.46          120.9          41.44          114.6
    0.8516              -57.13          2.587          29.29          35.31         -1.068       -0.04799          93.25          35.38          121.0          41.71          114.4
    0.8767              -57.03           2.57          29.26          35.39         -1.075       -0.05157          93.51           35.3          121.1          42.03          114.3
    0.9017              -56.92          2.549          29.22          35.48         -1.082       -0.05584          93.82          35.19          121.2          42.41          114.1
    0.9268              -56.78          2.524          29.18           35.6         -1.091       -0.06095           94.2          35.07          121.4          42.87          113.9
